<mxfile host="app.diagrams.net" agent="Mozilla/5.0 (Windows NT 10.0; Win64; x64) AppleWebKit/537.36 (KHTML, like Gecko) Chrome/128.0.0.0 Safari/537.36 Edg/128.0.0.0" version="24.7.14">
  <diagram name="第 1 页" id="VyVgt18rQJZcwj6FvGFu">
    <mxGraphModel dx="1042" dy="573" grid="1" gridSize="10" guides="1" tooltips="1" connect="1" arrows="1" fold="1" page="1" pageScale="1" pageWidth="827" pageHeight="1169" math="0" shadow="0">
      <root>
        <mxCell id="0" />
        <mxCell id="1" parent="0" />
        <mxCell id="V3Hylg59bHvUlkku89xE-1" value="&lt;font style=&quot;font-size: 15px;&quot;&gt;使用 &lt;code&gt;*&lt;/code&gt; 进行张量相乘，表示 &lt;strong&gt;逐元素（element-wise）乘法&lt;/strong&gt;，也就是将两个张量的相应位置的元素逐个相乘。张量的形状必须一致，或者遵循 &lt;strong&gt;广播机制&lt;/strong&gt;（broadcasting），才能进行逐元素乘法。&lt;/font&gt;" style="text;whiteSpace=wrap;html=1;align=left;" vertex="1" parent="1">
          <mxGeometry x="20" y="50" width="560" height="50" as="geometry" />
        </mxCell>
        <mxCell id="V3Hylg59bHvUlkku89xE-2" value="&lt;font style=&quot;font-size: 16px;&quot;&gt;例子 1：两个相同形状的张量逐元素相乘&lt;/font&gt;" style="text;whiteSpace=wrap;html=1;" vertex="1" parent="1">
          <mxGeometry x="20" y="130" width="400" height="40" as="geometry" />
        </mxCell>
        <UserObject label="import torch&#xa;&#xa;&#xa;# 创建两个形状相同的张量&#xa;a = torch.tensor([[1, 2], [3, 4]])&#xa;b = torch.tensor([[5, 6], [7, 8]])&#xa;&#xa;&#xa;# 逐元素相乘&#xa;c = a * b&#xa;&#xa;&#xa;print(c)" link="import torch&#xa;&#xa;&#xa;# 创建两个形状相同的张量&#xa;a = torch.tensor([[1, 2], [3, 4]])&#xa;b = torch.tensor([[5, 6], [7, 8]])&#xa;&#xa;&#xa;# 逐元素相乘&#xa;c = a * b&#xa;&#xa;&#xa;print(c)" id="V3Hylg59bHvUlkku89xE-3">
          <mxCell style="text;whiteSpace=wrap;fontSize=15;" vertex="1" parent="1">
            <mxGeometry x="20" y="170" width="380" height="250" as="geometry" />
          </mxCell>
        </UserObject>
        <mxCell id="V3Hylg59bHvUlkku89xE-4" value="" style="strokeWidth=2;html=1;shape=mxgraph.flowchart.annotation_1;align=left;pointerEvents=1;" vertex="1" parent="1">
          <mxGeometry x="20" y="440" width="50" height="60" as="geometry" />
        </mxCell>
        <mxCell id="V3Hylg59bHvUlkku89xE-5" value="1" style="text;strokeColor=none;align=center;fillColor=none;html=1;verticalAlign=middle;whiteSpace=wrap;rounded=0;" vertex="1" parent="1">
          <mxGeometry x="20" y="440" width="60" height="30" as="geometry" />
        </mxCell>
        <mxCell id="V3Hylg59bHvUlkku89xE-6" value="2" style="text;strokeColor=none;align=center;fillColor=none;html=1;verticalAlign=middle;whiteSpace=wrap;rounded=0;" vertex="1" parent="1">
          <mxGeometry x="90" y="440" width="60" height="30" as="geometry" />
        </mxCell>
        <mxCell id="V3Hylg59bHvUlkku89xE-7" value="3" style="text;strokeColor=none;align=center;fillColor=none;html=1;verticalAlign=middle;whiteSpace=wrap;rounded=0;" vertex="1" parent="1">
          <mxGeometry x="20" y="470" width="60" height="30" as="geometry" />
        </mxCell>
        <mxCell id="V3Hylg59bHvUlkku89xE-8" value="4" style="text;strokeColor=none;align=center;fillColor=none;html=1;verticalAlign=middle;whiteSpace=wrap;rounded=0;" vertex="1" parent="1">
          <mxGeometry x="90" y="470" width="60" height="30" as="geometry" />
        </mxCell>
        <mxCell id="V3Hylg59bHvUlkku89xE-13" value="" style="strokeWidth=2;html=1;shape=mxgraph.flowchart.annotation_1;align=left;pointerEvents=1;rotation=-180;" vertex="1" parent="1">
          <mxGeometry x="100" y="440" width="50" height="60" as="geometry" />
        </mxCell>
        <mxCell id="V3Hylg59bHvUlkku89xE-14" value="" style="strokeWidth=2;html=1;shape=mxgraph.flowchart.annotation_1;align=left;pointerEvents=1;" vertex="1" parent="1">
          <mxGeometry x="200" y="440" width="50" height="60" as="geometry" />
        </mxCell>
        <mxCell id="V3Hylg59bHvUlkku89xE-15" value="5" style="text;strokeColor=none;align=center;fillColor=none;html=1;verticalAlign=middle;whiteSpace=wrap;rounded=0;" vertex="1" parent="1">
          <mxGeometry x="200" y="440" width="60" height="30" as="geometry" />
        </mxCell>
        <mxCell id="V3Hylg59bHvUlkku89xE-16" value="6" style="text;strokeColor=none;align=center;fillColor=none;html=1;verticalAlign=middle;whiteSpace=wrap;rounded=0;" vertex="1" parent="1">
          <mxGeometry x="270" y="440" width="60" height="30" as="geometry" />
        </mxCell>
        <mxCell id="V3Hylg59bHvUlkku89xE-17" value="7" style="text;strokeColor=none;align=center;fillColor=none;html=1;verticalAlign=middle;whiteSpace=wrap;rounded=0;" vertex="1" parent="1">
          <mxGeometry x="200" y="470" width="60" height="30" as="geometry" />
        </mxCell>
        <mxCell id="V3Hylg59bHvUlkku89xE-18" value="8" style="text;strokeColor=none;align=center;fillColor=none;html=1;verticalAlign=middle;whiteSpace=wrap;rounded=0;" vertex="1" parent="1">
          <mxGeometry x="270" y="470" width="60" height="30" as="geometry" />
        </mxCell>
        <mxCell id="V3Hylg59bHvUlkku89xE-22" style="edgeStyle=orthogonalEdgeStyle;rounded=0;orthogonalLoop=1;jettySize=auto;html=1;exitX=0;exitY=0.5;exitDx=0;exitDy=0;exitPerimeter=0;" edge="1" parent="1" source="V3Hylg59bHvUlkku89xE-19">
          <mxGeometry relative="1" as="geometry">
            <mxPoint x="410" y="470" as="targetPoint" />
          </mxGeometry>
        </mxCell>
        <mxCell id="V3Hylg59bHvUlkku89xE-19" value="" style="strokeWidth=2;html=1;shape=mxgraph.flowchart.annotation_1;align=left;pointerEvents=1;rotation=-180;" vertex="1" parent="1">
          <mxGeometry x="290" y="440" width="50" height="60" as="geometry" />
        </mxCell>
        <mxCell id="V3Hylg59bHvUlkku89xE-21" value="&lt;span style=&quot;color: rgb(0, 0, 0); font-family: Helvetica; font-style: normal; font-variant-ligatures: normal; font-variant-caps: normal; font-weight: 400; letter-spacing: normal; orphans: 2; text-align: left; text-indent: 0px; text-transform: none; widows: 2; word-spacing: 0px; -webkit-text-stroke-width: 0px; white-space: normal; background-color: rgb(251, 251, 251); text-decoration-thickness: initial; text-decoration-style: initial; text-decoration-color: initial; float: none; display: inline !important;&quot;&gt;&lt;font style=&quot;font-size: 18px;&quot;&gt;*&lt;/font&gt;&lt;/span&gt;" style="text;whiteSpace=wrap;html=1;" vertex="1" parent="1">
          <mxGeometry x="170" y="450" width="40" height="40" as="geometry" />
        </mxCell>
        <mxCell id="V3Hylg59bHvUlkku89xE-23" value="" style="strokeWidth=2;html=1;shape=mxgraph.flowchart.annotation_1;align=left;pointerEvents=1;" vertex="1" parent="1">
          <mxGeometry x="430" y="440" width="50" height="60" as="geometry" />
        </mxCell>
        <mxCell id="V3Hylg59bHvUlkku89xE-24" value="1*5" style="text;strokeColor=none;align=center;fillColor=none;html=1;verticalAlign=middle;whiteSpace=wrap;rounded=0;" vertex="1" parent="1">
          <mxGeometry x="430" y="440" width="60" height="30" as="geometry" />
        </mxCell>
        <mxCell id="V3Hylg59bHvUlkku89xE-25" value="2*6" style="text;strokeColor=none;align=center;fillColor=none;html=1;verticalAlign=middle;whiteSpace=wrap;rounded=0;" vertex="1" parent="1">
          <mxGeometry x="500" y="440" width="60" height="30" as="geometry" />
        </mxCell>
        <mxCell id="V3Hylg59bHvUlkku89xE-26" value="3*7" style="text;strokeColor=none;align=center;fillColor=none;html=1;verticalAlign=middle;whiteSpace=wrap;rounded=0;" vertex="1" parent="1">
          <mxGeometry x="430" y="470" width="60" height="30" as="geometry" />
        </mxCell>
        <mxCell id="V3Hylg59bHvUlkku89xE-27" value="4*8" style="text;strokeColor=none;align=center;fillColor=none;html=1;verticalAlign=middle;whiteSpace=wrap;rounded=0;" vertex="1" parent="1">
          <mxGeometry x="500" y="470" width="60" height="30" as="geometry" />
        </mxCell>
        <mxCell id="V3Hylg59bHvUlkku89xE-28" value="" style="strokeWidth=2;html=1;shape=mxgraph.flowchart.annotation_1;align=left;pointerEvents=1;rotation=-180;" vertex="1" parent="1">
          <mxGeometry x="520" y="440" width="50" height="60" as="geometry" />
        </mxCell>
        <mxCell id="V3Hylg59bHvUlkku89xE-29" value="&lt;font style=&quot;font-size: 17px;&quot;&gt;例子 2：广播机制下的逐元素相乘&lt;/font&gt;" style="text;whiteSpace=wrap;html=1;" vertex="1" parent="1">
          <mxGeometry x="20" y="540" width="365" height="40" as="geometry" />
        </mxCell>
        <mxCell id="V3Hylg59bHvUlkku89xE-30" value="&lt;font style=&quot;font-size: 16px;&quot;&gt;如果两个张量的形状不同，但可以通过广播机制使它们形状兼容，PyTorch 会自动调整张量的形状进行逐元素相乘。&lt;/font&gt;" style="text;whiteSpace=wrap;html=1;" vertex="1" parent="1">
          <mxGeometry x="20" y="580" width="480" height="50" as="geometry" />
        </mxCell>
        <UserObject label="import torch&#xa;&#xa;&#xa;# 创建一个 2x2 张量&#xa;a = torch.tensor([[1, 2], [3, 4]])&#xa;&#xa;&#xa;# 创建一个 1x2 张量&#xa;b = torch.tensor([10, 20])&#xa;&#xa;&#xa;# 逐元素相乘（广播机制）&#xa;c = a * b&#xa;&#xa;&#xa;print(c)" link="import torch&#xa;&#xa;&#xa;# 创建一个 2x2 张量&#xa;a = torch.tensor([[1, 2], [3, 4]])&#xa;&#xa;&#xa;# 创建一个 1x2 张量&#xa;b = torch.tensor([10, 20])&#xa;&#xa;&#xa;# 逐元素相乘（广播机制）&#xa;c = a * b&#xa;&#xa;&#xa;print(c)" id="V3Hylg59bHvUlkku89xE-31">
          <mxCell style="text;whiteSpace=wrap;fontSize=15;" vertex="1" parent="1">
            <mxGeometry x="25" y="640" width="455" height="300" as="geometry" />
          </mxCell>
        </UserObject>
        <mxCell id="V3Hylg59bHvUlkku89xE-32" value="" style="strokeWidth=2;html=1;shape=mxgraph.flowchart.annotation_1;align=left;pointerEvents=1;" vertex="1" parent="1">
          <mxGeometry x="25" y="960" width="50" height="60" as="geometry" />
        </mxCell>
        <mxCell id="V3Hylg59bHvUlkku89xE-33" value="1" style="text;strokeColor=none;align=center;fillColor=none;html=1;verticalAlign=middle;whiteSpace=wrap;rounded=0;" vertex="1" parent="1">
          <mxGeometry x="25" y="960" width="60" height="30" as="geometry" />
        </mxCell>
        <mxCell id="V3Hylg59bHvUlkku89xE-34" value="2" style="text;strokeColor=none;align=center;fillColor=none;html=1;verticalAlign=middle;whiteSpace=wrap;rounded=0;" vertex="1" parent="1">
          <mxGeometry x="95" y="960" width="60" height="30" as="geometry" />
        </mxCell>
        <mxCell id="V3Hylg59bHvUlkku89xE-35" value="3" style="text;strokeColor=none;align=center;fillColor=none;html=1;verticalAlign=middle;whiteSpace=wrap;rounded=0;" vertex="1" parent="1">
          <mxGeometry x="25" y="990" width="60" height="30" as="geometry" />
        </mxCell>
        <mxCell id="V3Hylg59bHvUlkku89xE-36" value="4" style="text;strokeColor=none;align=center;fillColor=none;html=1;verticalAlign=middle;whiteSpace=wrap;rounded=0;" vertex="1" parent="1">
          <mxGeometry x="95" y="990" width="60" height="30" as="geometry" />
        </mxCell>
        <mxCell id="V3Hylg59bHvUlkku89xE-37" value="" style="strokeWidth=2;html=1;shape=mxgraph.flowchart.annotation_1;align=left;pointerEvents=1;rotation=-180;" vertex="1" parent="1">
          <mxGeometry x="105" y="960" width="50" height="60" as="geometry" />
        </mxCell>
        <mxCell id="V3Hylg59bHvUlkku89xE-38" value="" style="strokeWidth=2;html=1;shape=mxgraph.flowchart.annotation_1;align=left;pointerEvents=1;" vertex="1" parent="1">
          <mxGeometry x="210" y="975" width="50" height="30" as="geometry" />
        </mxCell>
        <mxCell id="V3Hylg59bHvUlkku89xE-39" value="10" style="text;strokeColor=none;align=center;fillColor=none;html=1;verticalAlign=middle;whiteSpace=wrap;rounded=0;" vertex="1" parent="1">
          <mxGeometry x="210" y="975" width="60" height="30" as="geometry" />
        </mxCell>
        <mxCell id="V3Hylg59bHvUlkku89xE-40" value="20" style="text;strokeColor=none;align=center;fillColor=none;html=1;verticalAlign=middle;whiteSpace=wrap;rounded=0;" vertex="1" parent="1">
          <mxGeometry x="280" y="975" width="60" height="30" as="geometry" />
        </mxCell>
        <mxCell id="V3Hylg59bHvUlkku89xE-43" value="" style="strokeWidth=2;html=1;shape=mxgraph.flowchart.annotation_1;align=left;pointerEvents=1;rotation=-180;" vertex="1" parent="1">
          <mxGeometry x="290" y="975" width="50" height="30" as="geometry" />
        </mxCell>
        <mxCell id="V3Hylg59bHvUlkku89xE-47" value="&lt;span style=&quot;color: rgb(0, 0, 0); font-family: Helvetica; font-style: normal; font-variant-ligatures: normal; font-variant-caps: normal; font-weight: 400; letter-spacing: normal; orphans: 2; text-align: left; text-indent: 0px; text-transform: none; widows: 2; word-spacing: 0px; -webkit-text-stroke-width: 0px; white-space: normal; background-color: rgb(251, 251, 251); text-decoration-thickness: initial; text-decoration-style: initial; text-decoration-color: initial; float: none; display: inline !important;&quot;&gt;&lt;font style=&quot;font-size: 18px;&quot;&gt;*&lt;/font&gt;&lt;/span&gt;" style="text;whiteSpace=wrap;html=1;" vertex="1" parent="1">
          <mxGeometry x="170" y="975" width="40" height="40" as="geometry" />
        </mxCell>
        <mxCell id="V3Hylg59bHvUlkku89xE-48" value="" style="shape=flexArrow;endArrow=classic;html=1;rounded=0;" edge="1" parent="1">
          <mxGeometry width="50" height="50" relative="1" as="geometry">
            <mxPoint x="364" y="989" as="sourcePoint" />
            <mxPoint x="464" y="989" as="targetPoint" />
          </mxGeometry>
        </mxCell>
        <mxCell id="V3Hylg59bHvUlkku89xE-49" value="" style="strokeWidth=2;html=1;shape=mxgraph.flowchart.annotation_1;align=left;pointerEvents=1;" vertex="1" parent="1">
          <mxGeometry x="480" y="960" width="50" height="60" as="geometry" />
        </mxCell>
        <mxCell id="V3Hylg59bHvUlkku89xE-50" value="1" style="text;strokeColor=none;align=center;fillColor=none;html=1;verticalAlign=middle;whiteSpace=wrap;rounded=0;" vertex="1" parent="1">
          <mxGeometry x="480" y="960" width="60" height="30" as="geometry" />
        </mxCell>
        <mxCell id="V3Hylg59bHvUlkku89xE-51" value="2" style="text;strokeColor=none;align=center;fillColor=none;html=1;verticalAlign=middle;whiteSpace=wrap;rounded=0;" vertex="1" parent="1">
          <mxGeometry x="550" y="960" width="60" height="30" as="geometry" />
        </mxCell>
        <mxCell id="V3Hylg59bHvUlkku89xE-52" value="3" style="text;strokeColor=none;align=center;fillColor=none;html=1;verticalAlign=middle;whiteSpace=wrap;rounded=0;" vertex="1" parent="1">
          <mxGeometry x="480" y="990" width="60" height="30" as="geometry" />
        </mxCell>
        <mxCell id="V3Hylg59bHvUlkku89xE-53" value="4" style="text;strokeColor=none;align=center;fillColor=none;html=1;verticalAlign=middle;whiteSpace=wrap;rounded=0;" vertex="1" parent="1">
          <mxGeometry x="550" y="990" width="60" height="30" as="geometry" />
        </mxCell>
        <mxCell id="V3Hylg59bHvUlkku89xE-54" value="" style="strokeWidth=2;html=1;shape=mxgraph.flowchart.annotation_1;align=left;pointerEvents=1;rotation=-180;" vertex="1" parent="1">
          <mxGeometry x="560" y="960" width="50" height="60" as="geometry" />
        </mxCell>
        <mxCell id="V3Hylg59bHvUlkku89xE-55" value="&lt;span style=&quot;color: rgb(0, 0, 0); font-family: Helvetica; font-style: normal; font-variant-ligatures: normal; font-variant-caps: normal; font-weight: 400; letter-spacing: normal; orphans: 2; text-align: left; text-indent: 0px; text-transform: none; widows: 2; word-spacing: 0px; -webkit-text-stroke-width: 0px; white-space: normal; background-color: rgb(251, 251, 251); text-decoration-thickness: initial; text-decoration-style: initial; text-decoration-color: initial; float: none; display: inline !important;&quot;&gt;&lt;font style=&quot;font-size: 18px;&quot;&gt;*&lt;/font&gt;&lt;/span&gt;" style="text;whiteSpace=wrap;html=1;" vertex="1" parent="1">
          <mxGeometry x="620" y="975" width="40" height="40" as="geometry" />
        </mxCell>
        <mxCell id="V3Hylg59bHvUlkku89xE-56" value="" style="strokeWidth=2;html=1;shape=mxgraph.flowchart.annotation_1;align=left;pointerEvents=1;" vertex="1" parent="1">
          <mxGeometry x="640" y="960" width="50" height="60" as="geometry" />
        </mxCell>
        <mxCell id="V3Hylg59bHvUlkku89xE-57" value="10" style="text;strokeColor=none;align=center;fillColor=none;html=1;verticalAlign=middle;whiteSpace=wrap;rounded=0;" vertex="1" parent="1">
          <mxGeometry x="640" y="990" width="60" height="30" as="geometry" />
        </mxCell>
        <mxCell id="V3Hylg59bHvUlkku89xE-58" value="20" style="text;strokeColor=none;align=center;fillColor=none;html=1;verticalAlign=middle;whiteSpace=wrap;rounded=0;" vertex="1" parent="1">
          <mxGeometry x="710" y="960" width="60" height="30" as="geometry" />
        </mxCell>
        <mxCell id="V3Hylg59bHvUlkku89xE-59" value="" style="strokeWidth=2;html=1;shape=mxgraph.flowchart.annotation_1;align=left;pointerEvents=1;rotation=-180;" vertex="1" parent="1">
          <mxGeometry x="720" y="960" width="50" height="60" as="geometry" />
        </mxCell>
        <mxCell id="V3Hylg59bHvUlkku89xE-60" value="10" style="text;strokeColor=none;align=center;fillColor=none;html=1;verticalAlign=middle;whiteSpace=wrap;rounded=0;" vertex="1" parent="1">
          <mxGeometry x="640" y="960" width="60" height="30" as="geometry" />
        </mxCell>
        <mxCell id="V3Hylg59bHvUlkku89xE-64" value="20" style="text;strokeColor=none;align=center;fillColor=none;html=1;verticalAlign=middle;whiteSpace=wrap;rounded=0;" vertex="1" parent="1">
          <mxGeometry x="710" y="990" width="60" height="30" as="geometry" />
        </mxCell>
      </root>
    </mxGraphModel>
  </diagram>
</mxfile>
